<svg width="262" height="54" viewBox="0 0 262 54" fill="none" xmlns="http://www.w3.org/2000/svg">
<path d="M13.8831 49.04C11.5365 49.04 9.24313 48.8267 7.00313 48.4C5.82979 48.1333 4.84313 47.8133 4.04313 47.44C3.29646 47.0667 2.62979 46.7733 2.04313 46.56C1.29646 46.1867 0.923125 45.76 0.923125 45.28C0.923125 45.0667 1.08313 44.96 1.40313 44.96C1.50979 44.96 1.61646 44.96 1.72313 44.96C1.82979 44.96 1.96313 45.0133 2.12313 45.12C2.92313 45.44 3.77646 45.7867 4.68313 46.16C5.58979 46.5333 6.52313 46.7733 7.48313 46.88C7.90979 46.9333 8.46979 46.9867 9.16313 47.04C9.85646 47.0933 10.5765 47.12 11.3231 47.12C12.7631 47.12 14.2565 47.0133 15.8031 46.8C17.3498 46.5333 18.6565 46.1067 19.7231 45.52C20.7898 44.88 21.3231 43.9733 21.3231 42.8C21.3231 42.16 20.8965 41.36 20.0431 40.4C19.1898 39.44 18.0965 38.3467 16.7631 37.12C15.4298 35.84 14.0431 34.4533 12.6031 32.96C11.2165 31.4667 9.98979 29.8933 8.92313 28.24C7.96313 26.6933 7.13646 25.0667 6.44313 23.36C5.80313 21.6 5.48312 19.8133 5.48312 18C5.48312 15.12 6.14979 12.64 7.48313 10.56C8.86979 8.48 10.6831 6.77333 12.9231 5.44C15.2165 4.10666 17.6698 3.12 20.2831 2.48C22.9498 1.78667 25.5631 1.44 28.1231 1.44C29.4031 1.44 30.6031 1.52 31.7231 1.68C33.1631 1.84 34.7098 2.21333 36.3631 2.8C38.0698 3.33333 39.5098 4.16 40.6831 5.28C41.9098 6.4 42.5231 7.89333 42.5231 9.76C42.5231 11.7333 41.9098 13.6267 40.6831 15.44C39.4565 17.2533 37.9365 18.8533 36.1231 20.24C34.3631 21.5733 32.6298 22.5867 30.9231 23.28C30.6031 23.3867 30.3365 23.44 30.1231 23.44C29.7498 23.44 29.5631 23.36 29.5631 23.2C29.5631 23.0933 29.6965 22.96 29.9631 22.8C30.2298 22.5867 30.3898 22.4533 30.4431 22.4C31.6698 21.44 32.8431 20.5867 33.9631 19.84C35.1365 19.04 36.1765 18.1067 37.0831 17.04C38.1498 15.8133 38.9231 14.64 39.4031 13.52C39.9365 12.3467 40.2031 11.2533 40.2031 10.24C40.2031 8.53333 39.4831 7.09333 38.0431 5.92C36.6565 4.74666 34.6298 4 31.9631 3.68C31.4831 3.62667 31.0031 3.6 30.5231 3.6C30.0431 3.54666 29.5631 3.52 29.0831 3.52C26.5765 3.52 24.0431 3.89333 21.4831 4.64C18.9231 5.33333 16.5765 6.37333 14.4431 7.76C12.3098 9.09333 10.5765 10.6933 9.24313 12.56C7.96313 14.4267 7.32313 16.5333 7.32313 18.88C7.32313 21.6 8.33646 24.4533 10.3631 27.44C11.4831 29.04 12.8165 30.5867 14.3631 32.08C15.9098 33.5733 17.4298 35.0133 18.9231 36.4C20.4698 37.7333 21.7231 39.0133 22.6831 40.24C23.6965 41.4667 24.2031 42.6133 24.2031 43.68C24.2031 45.0133 23.6965 46.08 22.6831 46.88C21.7231 47.68 20.4431 48.24 18.8431 48.56C17.2965 48.88 15.6431 49.04 13.8831 49.04ZM33.4588 48.56C32.4988 48.56 31.8054 48.24 31.3788 47.6C30.9521 46.96 30.7387 46.16 30.7387 45.2C30.7387 44.4533 30.8187 43.7333 30.9787 43.04C31.0854 42.72 31.3521 41.92 31.7788 40.64C32.2588 39.36 32.8721 37.9467 33.6188 36.4C34.4188 34.8533 35.2721 33.52 36.1788 32.4C37.0854 31.2267 38.0188 30.64 38.9788 30.64C39.4054 30.64 39.6188 30.7467 39.6188 30.96C39.6188 31.1733 39.5121 31.3867 39.2988 31.6C38.2321 32.88 37.2188 34.4 36.2588 36.16C35.3521 37.8667 34.5788 39.4933 33.9388 41.04C33.3521 42.5867 33.0054 43.76 32.8988 44.56C32.7388 46.2667 33.2454 47.12 34.4188 47.12C35.7521 47.12 37.1388 46.3733 38.5788 44.88C40.0721 43.3867 41.4054 41.6533 42.5788 39.68C42.9521 39.0933 43.4054 38.3467 43.9388 37.44C44.4721 36.48 45.0588 35.6267 45.6988 34.88C46.3921 34.1333 47.0588 33.76 47.6988 33.76C48.1254 33.76 48.3388 33.8667 48.3388 34.08C48.3388 34.2933 48.2321 34.5067 48.0188 34.72C47.2721 35.6267 46.5521 36.8 45.8588 38.24C45.1654 39.68 44.6054 41.0667 44.1788 42.4C43.8054 43.68 43.6188 44.64 43.6188 45.28C43.6188 46.8267 44.2854 47.6 45.6188 47.6C47.0588 47.6 48.5254 47.0133 50.0188 45.84C51.5121 44.6667 52.8721 43.2 54.0988 41.44C55.3788 39.6267 56.3921 37.7867 57.1388 35.92C57.9388 34.0533 58.3388 32.4533 58.3388 31.12C58.3388 29.5733 57.8321 28.6933 56.8188 28.48C56.6588 28.48 56.5788 28.4267 56.5788 28.32C56.5788 28.0533 56.8721 27.92 57.4588 27.92C58.3654 27.92 59.0321 28.2933 59.4588 29.04C59.8854 29.7867 60.0988 30.6933 60.0988 31.76C60.0988 33.84 59.4854 36 58.2588 38.24C57.0854 40.4267 55.5654 42.4267 53.6988 44.24C51.8321 46 49.8588 47.2533 47.7788 48C46.8188 48.32 45.9388 48.48 45.1388 48.48C44.0721 48.48 43.1921 48.1867 42.4988 47.6C41.8588 47.0133 41.5388 46.1333 41.5388 44.96C41.5388 44.3733 41.6188 43.7333 41.7787 43.04C41.7787 42.9333 41.7787 42.8267 41.7787 42.72C41.8321 42.6133 41.8854 42.48 41.9388 42.32C40.9254 43.6533 39.8588 44.8533 38.7388 45.92C37.6721 46.9867 36.6054 47.7067 35.5388 48.08C34.7388 48.4 34.0454 48.56 33.4588 48.56ZM66.925 48.64C64.7383 48.64 63.1383 48.16 62.125 47.2C61.1117 46.1867 60.605 44.8533 60.605 43.2C60.605 42.7733 60.6317 42.3467 60.685 41.92C60.7917 41.44 60.8983 40.96 61.005 40.48C61.2717 39.52 61.6983 38.4 62.285 37.12C62.925 35.84 63.6983 34.5867 64.605 33.36C65.5117 32.1333 66.4983 31.12 67.565 30.32C68.6317 29.52 69.7517 29.12 70.925 29.12C71.885 29.12 72.605 29.4667 73.085 30.16C73.6183 30.8533 73.885 31.68 73.885 32.64C73.885 33.6533 73.565 34.6933 72.925 35.76C72.3383 36.7733 71.5383 37.6 70.525 38.24C69.3517 39.04 68.0183 39.44 66.525 39.44C65.565 39.44 64.685 39.2533 63.885 38.88C63.085 40.48 62.685 42.0533 62.685 43.6C62.685 44.72 63.005 45.68 63.645 46.48C64.285 47.28 65.3517 47.68 66.845 47.68C68.6583 47.68 70.2583 47.2533 71.645 46.4C73.0317 45.4933 74.3117 44.32 75.485 42.88C76.7117 41.44 77.885 39.8933 79.005 38.24C79.165 38.08 79.2717 38 79.325 38C79.485 38 79.565 38.1333 79.565 38.4C79.565 38.6667 79.485 38.9333 79.325 39.2C78.365 40.6933 77.2717 42.16 76.045 43.6C74.8717 45.04 73.5383 46.24 72.045 47.2C70.5517 48.16 68.845 48.64 66.925 48.64ZM65.725 38.32C67.1117 38.32 68.4183 37.84 69.645 36.88C70.2317 36.4533 70.7383 35.9467 71.165 35.36C71.5917 34.7733 71.885 34.1867 72.045 33.6C72.205 33.0133 72.285 32.5067 72.285 32.08C72.285 30.8533 71.8317 30.24 70.925 30.24C70.3383 30.24 69.6717 30.5867 68.925 31.28C68.285 31.8667 67.6183 32.6133 66.925 33.52C66.285 34.4267 65.725 35.3067 65.245 36.16C64.765 36.96 64.445 37.5467 64.285 37.92C64.6583 38.1867 65.1383 38.32 65.725 38.32ZM84.1125 48.64C81.9258 48.64 80.3258 48.16 79.3125 47.2C78.2992 46.1867 77.7925 44.8533 77.7925 43.2C77.7925 42.7733 77.8192 42.3467 77.8725 41.92C77.9792 41.44 78.0858 40.96 78.1925 40.48C78.4592 39.52 78.8858 38.4 79.4725 37.12C80.1125 35.84 80.8858 34.5867 81.7925 33.36C82.6992 32.1333 83.6858 31.12 84.7525 30.32C85.8192 29.52 86.9392 29.12 88.1125 29.12C89.0725 29.12 89.7925 29.4667 90.2725 30.16C90.8058 30.8533 91.0725 31.68 91.0725 32.64C91.0725 33.6533 90.7525 34.6933 90.1125 35.76C89.5258 36.7733 88.7258 37.6 87.7125 38.24C86.5392 39.04 85.2058 39.44 83.7125 39.44C82.7525 39.44 81.8725 39.2533 81.0725 38.88C80.2725 40.48 79.8725 42.0533 79.8725 43.6C79.8725 44.72 80.1925 45.68 80.8325 46.48C81.4725 47.28 82.5392 47.68 84.0325 47.68C85.8458 47.68 87.4458 47.2533 88.8325 46.4C90.2192 45.4933 91.4992 44.32 92.6725 42.88C93.8992 41.44 95.0725 39.8933 96.1925 38.24C96.3525 38.08 96.4592 38 96.5125 38C96.6725 38 96.7525 38.1333 96.7525 38.4C96.7525 38.6667 96.6725 38.9333 96.5125 39.2C95.5525 40.6933 94.4592 42.16 93.2325 43.6C92.0592 45.04 90.7258 46.24 89.2325 47.2C87.7392 48.16 86.0325 48.64 84.1125 48.64ZM82.9125 38.32C84.2992 38.32 85.6058 37.84 86.8325 36.88C87.4192 36.4533 87.9258 35.9467 88.3525 35.36C88.7792 34.7733 89.0725 34.1867 89.2325 33.6C89.3925 33.0133 89.4725 32.5067 89.4725 32.08C89.4725 30.8533 89.0192 30.24 88.1125 30.24C87.5258 30.24 86.8592 30.5867 86.1125 31.28C85.4725 31.8667 84.8058 32.6133 84.1125 33.52C83.4725 34.4267 82.9125 35.3067 82.4325 36.16C81.9525 36.96 81.6325 37.5467 81.4725 37.92C81.8458 38.1867 82.3258 38.32 82.9125 38.32ZM96.58 48.56C95.62 48.56 94.9267 48.24 94.5 47.6C94.0733 46.96 93.86 46.16 93.86 45.2C93.86 44.4533 93.94 43.7333 94.1 43.04C94.26 42.2933 94.7667 41.0667 95.62 39.36C96.4733 37.6 97.4067 35.76 98.42 33.84C97.8867 34.0533 97.3 34.2933 96.66 34.56C96.0733 34.7733 95.6467 35.0133 95.38 35.28C95.1667 35.3867 95.0333 35.44 94.98 35.44C94.82 35.44 94.74 35.3333 94.74 35.12C94.74 34.64 95.0333 34.1867 95.62 33.76C96.2067 33.3333 96.7667 33.04 97.3 32.88C97.8867 32.72 98.5533 32.5333 99.3 32.32C99.8867 31.2533 100.5 30.16 101.14 29.04C101.833 27.8667 102.447 26.8533 102.98 26C103.353 25.4667 103.887 24.8 104.58 24C105.273 23.1467 106.047 22.4533 106.9 21.92C107.38 21.6 108.02 21.44 108.82 21.44C109.407 21.44 109.727 21.5467 109.78 21.76C108.98 21.9733 108.153 22.5067 107.3 23.36C106.5 24.2133 105.727 25.2 104.98 26.32C104.233 27.44 103.593 28.5067 103.06 29.52C102.527 30.48 102.127 31.2267 101.86 31.76C102.98 31.6 103.913 31.52 104.66 31.52C105.087 31.52 105.46 31.5467 105.78 31.6C106.1 31.6 106.367 31.6267 106.58 31.68C107.007 31.7333 107.22 31.8667 107.22 32.08C107.22 32.2933 106.953 32.4 106.42 32.4C105.993 32.4 105.487 32.4 104.9 32.4C104.367 32.4 103.78 32.4533 103.14 32.56C102.66 32.6133 102.153 32.7733 101.62 33.04C101.14 33.3067 100.82 33.6 100.66 33.92C99.4867 36.0533 98.4467 38.1067 97.54 40.08C96.6333 42.0533 96.1267 43.5467 96.02 44.56C95.86 46.2667 96.3667 47.12 97.54 47.12C98.7133 47.12 99.8867 46.6133 101.06 45.6C102.287 44.5333 103.433 43.3067 104.5 41.92C105.567 40.5333 106.42 39.36 107.06 38.4C107.273 38.1867 107.407 38.08 107.46 38.08C107.62 38.08 107.7 38.2133 107.7 38.48C107.7 38.6933 107.62 38.9333 107.46 39.2C106.553 40.5867 105.513 42 104.34 43.44C103.167 44.88 101.913 46.1067 100.58 47.12C99.3 48.08 97.9667 48.56 96.58 48.56ZM126.973 53.2C125.48 53.2 124.226 52.8533 123.213 52.16C122.253 51.52 121.773 50.3733 121.773 48.72C121.773 47.0133 122.413 45.12 123.693 43.04C125.026 40.9067 126.92 38.9067 129.373 37.04C131.773 35.2267 134.493 33.76 137.533 32.64C140.573 31.52 143.773 30.6667 147.133 30.08C150.546 29.44 153.906 29.0133 157.213 28.8C159.453 25.0667 161.373 21.1733 162.973 17.12C164.573 13.0667 165.56 9.25333 165.933 5.68C165.133 5.25333 164.173 4.96 163.053 4.8C161.933 4.58666 160.813 4.48 159.693 4.48C158.573 4.42666 157.613 4.4 156.813 4.4C156.013 4.4 155.533 4.4 155.373 4.4C152.6 4.61333 149.88 4.96 147.213 5.44C144.6 5.86666 142.573 6.37333 141.133 6.96C139.8 7.49333 138.733 8.08 137.933 8.72C137.133 9.30666 136.733 9.94667 136.733 10.64C136.733 11.5467 137.533 12.4533 139.133 13.36C139.24 13.4133 139.293 13.52 139.293 13.68C139.293 13.84 139.24 13.9733 139.133 14.08C139.026 14.1867 138.92 14.2133 138.813 14.16C136.733 12.9867 135.693 11.6267 135.693 10.08C135.693 8.05333 137.106 6.50667 139.933 5.44C140.733 5.12 142.093 4.8 144.013 4.48C145.986 4.10667 148.2 3.81333 150.653 3.6C153.16 3.38667 155.586 3.28 157.933 3.28C160.76 3.28 163.213 3.49333 165.293 3.92C167.426 4.29333 168.626 5.01333 168.893 6.08V6.32C168.893 6.53333 168.866 6.77333 168.813 7.04C168.76 7.25333 168.68 7.46667 168.573 7.68C167.88 11.04 166.76 14.5333 165.213 18.16C163.72 21.7333 161.88 25.2533 159.693 28.72C160.226 28.6667 160.76 28.64 161.293 28.64C161.826 28.64 162.333 28.64 162.813 28.64C164.2 28.64 165.506 28.6667 166.733 28.72C167.96 28.7733 169.16 28.8533 170.333 28.96C171.506 29.0133 172.653 29.12 173.773 29.28C174.946 29.44 176.04 29.6267 177.053 29.84C177.106 29.5733 177.16 29.3333 177.213 29.12C177.32 28.9067 177.4 28.6933 177.453 28.48C178.413 25.6533 179.533 22.7733 180.813 19.84C182.146 16.9067 183.453 14.1333 184.733 11.52C186.013 8.90667 187.16 6.69333 188.173 4.88C189.186 3.01333 189.906 1.78667 190.333 1.2C190.6 0.773329 191 0.479997 191.533 0.319999C192.066 0.106665 192.546 -1.90735e-06 192.973 -1.90735e-06C193.293 -1.90735e-06 193.533 0.0533307 193.693 0.159996C193.853 0.266665 193.853 0.426666 193.693 0.639999C192.946 1.70667 191.96 3.30667 190.733 5.44C189.56 7.52 188.28 9.94666 186.893 12.72C185.506 15.44 184.173 18.32 182.893 21.36C181.613 24.4 180.52 27.4133 179.613 30.4C182.12 30.9333 184.2 31.5467 185.853 32.24C187.56 32.9333 188.573 33.5467 188.893 34.08C188.946 34.1333 188.973 34.2133 188.973 34.32C188.973 34.5333 188.813 34.6933 188.493 34.8C188.226 34.8533 188.04 34.7733 187.933 34.56C187.72 34.1333 186.84 33.6533 185.293 33.12C183.746 32.5333 181.746 32 179.293 31.52C178.813 33.1733 178.413 34.8 178.093 36.4C177.826 37.9467 177.693 39.4133 177.693 40.8C177.693 42.9333 178.093 44.72 178.893 46.16C179.693 47.6 181 48.5333 182.813 48.96C183.08 49.0133 183.32 49.04 183.533 49.04C183.8 49.0933 184.066 49.12 184.333 49.12C185.08 49.12 185.853 48.9333 186.653 48.56C187.506 48.24 188.306 47.6533 189.053 46.8C189.106 46.6933 189.24 46.64 189.453 46.64C189.72 46.64 189.933 46.72 190.093 46.88C190.253 47.04 190.253 47.2 190.093 47.36C189.24 48.32 188.333 49.0133 187.373 49.44C186.413 49.8667 185.426 50.08 184.413 50.08C183.826 50.08 183.213 50 182.573 49.84C179.96 49.2533 178.12 47.9733 177.053 46C175.986 44.0267 175.453 41.7333 175.453 39.12C175.453 36.4533 175.853 33.76 176.653 31.04C175.48 30.88 174.226 30.72 172.893 30.56C171.56 30.4 170.2 30.2933 168.813 30.24C168.12 30.1333 167.373 30.08 166.573 30.08C165.773 30.08 164.946 30.08 164.093 30.08C163.24 30.08 162.36 30.08 161.453 30.08C160.6 30.08 159.693 30.1333 158.733 30.24C157.08 32.6933 155.266 35.0667 153.293 37.36C151.373 39.6 149.266 41.7333 146.973 43.76C145.693 44.88 144.36 45.9467 142.973 46.96C141.64 47.9733 140.28 48.88 138.893 49.68C138.2 50.0533 137.186 50.5067 135.853 51.04C134.52 51.6267 133.053 52.1333 131.453 52.56C129.906 52.9867 128.413 53.2 126.973 53.2ZM129.213 51.52C132.093 51.52 135.026 50.64 138.013 48.88C141 47.12 143.8 45.0133 146.413 42.56C149.933 39.2533 153.213 35.2 156.253 30.4C153.053 30.6133 149.8 31.0667 146.493 31.76C143.186 32.4 140.093 33.3067 137.213 34.48C134.386 35.6 131.986 37.0667 130.013 38.88C128.52 40.2133 127.24 41.7333 126.173 43.44C125.16 45.1467 124.653 46.6933 124.653 48.08C124.653 49.0933 125 49.92 125.693 50.56C126.386 51.2 127.56 51.52 129.213 51.52ZM198.459 48.32C197.019 48.32 195.766 47.9733 194.699 47.28C193.633 46.5333 193.099 45.2267 193.099 43.36C193.099 42.1867 193.393 40.9067 193.979 39.52C194.566 38.08 195.313 36.6933 196.219 35.36C197.179 33.9733 198.219 32.8267 199.339 31.92C199.606 31.7067 199.953 31.6 200.379 31.6C201.019 30.96 201.739 30.48 202.539 30.16C203.393 29.84 204.193 29.68 204.939 29.68C206.273 29.68 207.499 30.1067 208.619 30.96C209.793 31.8133 210.379 33.1733 210.379 35.04C210.379 36.1067 210.086 37.3867 209.499 38.88C208.966 40.2667 208.139 41.7067 207.019 43.2C205.899 44.64 204.593 45.8667 203.099 46.88C201.659 47.84 200.113 48.32 198.459 48.32ZM198.379 47.36C199.553 47.36 200.753 46.9067 201.979 46C203.259 45.0933 204.433 43.9467 205.499 42.56C206.566 41.12 207.339 39.68 207.819 38.24C208.353 36.8 208.619 35.52 208.619 34.4C208.619 33.0133 208.246 32.0267 207.499 31.44C206.753 30.8 205.926 30.48 205.019 30.48C203.579 30.48 202.326 30.96 201.259 31.92C201.793 32.24 201.846 32.56 201.419 32.88C200.673 33.52 199.819 34.4 198.859 35.52C197.953 36.64 197.233 37.68 196.699 38.64C196.326 39.28 195.979 40.1067 195.659 41.12C195.393 42.1333 195.259 43.0933 195.259 44C195.259 44.9067 195.473 45.7067 195.899 46.4C196.379 47.04 197.206 47.36 198.379 47.36ZM233.048 48.8C232.194 48.8 231.448 48.4533 230.808 47.76C230.168 47.0667 229.848 45.9733 229.848 44.48C229.848 43.36 230.061 42.1067 230.488 40.72C230.968 39.28 231.581 37.84 232.328 36.4C233.074 34.96 233.848 33.68 234.648 32.56C233.581 33.1467 232.301 34.08 230.808 35.36C229.368 36.64 227.981 38.0533 226.648 39.6C225.314 41.0933 224.274 42.5067 223.528 43.84C223.261 44.32 222.808 44.6667 222.168 44.88C221.581 45.04 221.341 45.0133 221.448 44.8C221.501 44.7467 221.714 44.2933 222.088 43.44C222.514 42.5333 222.941 41.6 223.368 40.64C223.794 39.68 224.061 39.04 224.168 38.72C224.594 37.6533 224.888 36.7733 225.048 36.08C225.261 35.3333 225.368 34.7733 225.368 34.4C225.368 33.8133 225.154 33.52 224.728 33.52C224.248 33.52 223.554 33.8933 222.648 34.64C221.794 35.3333 220.941 36.1333 220.088 37.04C219.288 37.8933 218.701 38.56 218.328 39.04C217.794 39.68 217.154 40.5067 216.408 41.52C215.714 42.48 215.048 43.4667 214.408 44.48C213.821 45.4933 213.421 46.4 213.208 47.2C213.154 47.4133 213.101 47.6 213.048 47.76C212.994 47.8667 212.941 47.9733 212.888 48.08C212.674 48.4533 212.381 48.4267 212.008 48C211.581 47.52 211.367 46.7467 211.367 45.68C211.367 44.56 211.554 43.3067 211.928 41.92C212.354 40.48 212.834 39.1733 213.368 38C213.901 36.88 214.381 35.8933 214.808 35.04C215.288 34.1867 215.608 33.6533 215.768 33.44C216.354 32.6933 216.968 32.08 217.608 31.6C218.248 31.12 218.888 30.88 219.528 30.88C219.848 30.88 220.088 30.96 220.248 31.12C220.461 31.28 220.488 31.4133 220.328 31.52C219.901 31.7333 219.341 32.32 218.648 33.28C217.954 34.1867 217.234 35.2533 216.488 36.48C216.008 37.3333 215.394 38.48 214.648 39.92C213.901 41.36 213.474 42.5867 213.368 43.6C213.368 44.0267 213.474 44.2133 213.688 44.16C214.328 43.0933 214.941 42.1067 215.528 41.2C216.168 40.2933 216.888 39.36 217.688 38.4C218.488 37.44 219.394 36.4533 220.408 35.44C221.421 34.3733 222.408 33.4933 223.368 32.8C224.381 32.0533 225.181 31.7067 225.768 31.76C226.461 31.8133 226.941 32.0267 227.208 32.4C227.474 32.7733 227.608 33.2267 227.608 33.76C227.608 34.6133 227.421 35.4933 227.048 36.4C226.674 37.3067 226.354 38.0533 226.088 38.64L225.768 39.44C226.568 38.3733 227.554 37.2533 228.728 36.08C229.901 34.9067 231.101 33.8667 232.328 32.96C233.554 32 234.621 31.36 235.528 31.04C236.061 30.8267 236.568 30.72 237.048 30.72C237.528 30.72 237.768 30.88 237.768 31.2C237.768 31.3067 237.634 31.5733 237.368 32C236.141 33.6533 235.048 35.3333 234.088 37.04C233.128 38.7467 232.488 40.6667 232.168 42.8C232.114 43.12 232.061 43.44 232.008 43.76C232.008 44.0267 232.008 44.2933 232.008 44.56C232.008 45.4133 232.141 46.16 232.408 46.8C232.674 47.3867 233.154 47.68 233.848 47.68C234.861 47.68 235.901 47.2267 236.968 46.32C238.034 45.36 239.101 44.16 240.168 42.72C241.234 41.2267 242.274 39.7333 243.288 38.24C243.394 38.08 243.474 38 243.528 38C243.688 38 243.768 38.1333 243.768 38.4C243.768 38.72 243.634 39.0933 243.368 39.52C242.461 40.9067 241.448 42.32 240.328 43.76C239.261 45.2 238.114 46.4 236.888 47.36C235.661 48.32 234.381 48.8 233.048 48.8ZM248.409 48.64C246.223 48.64 244.623 48.16 243.609 47.2C242.596 46.1867 242.089 44.8533 242.089 43.2C242.089 42.7733 242.116 42.3467 242.169 41.92C242.276 41.44 242.383 40.96 242.489 40.48C242.756 39.52 243.183 38.4 243.769 37.12C244.409 35.84 245.183 34.5867 246.089 33.36C246.996 32.1333 247.983 31.12 249.049 30.32C250.116 29.52 251.236 29.12 252.409 29.12C253.369 29.12 254.089 29.4667 254.569 30.16C255.103 30.8533 255.369 31.68 255.369 32.64C255.369 33.6533 255.049 34.6933 254.409 35.76C253.823 36.7733 253.023 37.6 252.009 38.24C250.836 39.04 249.503 39.44 248.009 39.44C247.049 39.44 246.169 39.2533 245.369 38.88C244.569 40.48 244.169 42.0533 244.169 43.6C244.169 44.72 244.489 45.68 245.129 46.48C245.769 47.28 246.836 47.68 248.329 47.68C250.143 47.68 251.743 47.2533 253.129 46.4C254.516 45.4933 255.796 44.32 256.969 42.88C258.196 41.44 259.369 39.8933 260.489 38.24C260.649 38.08 260.756 38 260.809 38C260.969 38 261.049 38.1333 261.049 38.4C261.049 38.6667 260.969 38.9333 260.809 39.2C259.849 40.6933 258.756 42.16 257.529 43.6C256.356 45.04 255.023 46.24 253.529 47.2C252.036 48.16 250.329 48.64 248.409 48.64ZM247.209 38.32C248.596 38.32 249.903 37.84 251.129 36.88C251.716 36.4533 252.223 35.9467 252.649 35.36C253.076 34.7733 253.369 34.1867 253.529 33.6C253.689 33.0133 253.769 32.5067 253.769 32.08C253.769 30.8533 253.316 30.24 252.409 30.24C251.823 30.24 251.156 30.5867 250.409 31.28C249.769 31.8667 249.103 32.6133 248.409 33.52C247.769 34.4267 247.209 35.3067 246.729 36.16C246.249 36.96 245.929 37.5467 245.769 37.92C246.143 38.1867 246.623 38.32 247.209 38.32Z" fill="black"/>
</svg>
