<svg width="375" height="375" viewBox="0 0 375 375" fill="none" xmlns="http://www.w3.org/2000/svg">
<rect width="375" height="375" fill="white"/>
<path d="M253.25 128.629L246.621 122L122 246.621L128.629 253.25L138.004 243.875H234.5C236.985 243.872 239.368 242.883 241.125 241.125C242.883 239.368 243.872 236.985 243.875 234.5V138.004L253.25 128.629ZM234.5 234.5H147.379L183.908 197.97L195.058 209.12C196.817 210.879 199.201 211.866 201.688 211.866C204.174 211.866 206.558 210.879 208.317 209.12L215.75 201.688L234.5 220.425V234.5ZM234.5 207.163L222.379 195.042C220.621 193.284 218.236 192.296 215.75 192.296C213.264 192.296 210.879 193.284 209.121 195.042L201.688 202.476L190.545 191.333L234.5 147.379V207.163Z" fill="#C0C0C0" fill-opacity="0.64"/>
<path d="M140.75 215.75V201.688L164.188 178.266L170.625 184.703L177.262 178.066L170.817 171.62C169.058 169.862 166.674 168.875 164.188 168.875C161.701 168.875 159.317 169.862 157.558 171.62L140.75 188.429V140.75H215.75V131.375H140.75C138.264 131.377 135.881 132.366 134.124 134.124C132.366 135.881 131.377 138.264 131.375 140.75V215.75H140.75Z" fill="#C0C0C0" fill-opacity="0.64"/>
</svg>
